<svg xmlns="http://www.w3.org/2000/svg" viewBox="0 0 160 160" fill="none"><title>תוכן ותהליך בקבוצה</title><ellipse cx="123" cy="43" rx="11" ry="8" fill="#11B0E6" stroke="none" stroke-width="2.1" stroke-linecap="round" stroke-linejoin="round"/><path d="M 30 57 C 34 28 72 22 98 31 C 129 39 142 63 131 94 C 120 124 89 139 60 126 C 29 112 18 86 30 57 Z " fill="#DFF3FC" stroke="none" stroke-width="2.1" stroke-linecap="round" stroke-linejoin="round"/><path d="M 48 101 C 59 103 58 82 72 82 C 91 82 83 105 98 103 C 110 102 108 83 117 78" fill="none" stroke="#064BFF" stroke-width="2.1" stroke-linecap="round" stroke-linejoin="round"/><path d="M 48 112 L 48 49 L 111 49" fill="none" stroke="#163C70" stroke-width="2.1" stroke-linecap="round" stroke-linejoin="round"/><path d="M 62 62 L 99 62" fill="none" stroke="#163C70" stroke-width="1.7" stroke-linecap="round" stroke-linejoin="round"/><path d="M 62 70 L 88 70" fill="none" stroke="#163C70" stroke-width="1.7" stroke-linecap="round" stroke-linejoin="round"/><ellipse cx="80" cy="80" rx="5" ry="5" fill="#FFFFFF" stroke="#064BFF" stroke-width="2.1" stroke-linecap="round" stroke-linejoin="round"/></svg>