<svg xmlns="http://www.w3.org/2000/svg" viewBox="0 0 160 160" fill="none"><title>סטינג וחוזה קבוצתי</title><ellipse cx="123" cy="43" rx="11" ry="8" fill="#673BE8" stroke="none" stroke-width="2.1" stroke-linecap="round" stroke-linejoin="round"/><path d="M 30 57 C 34 28 72 22 98 31 C 129 39 142 63 131 94 C 120 124 89 139 60 126 C 29 112 18 86 30 57 Z " fill="#E7E5FD" stroke="none" stroke-width="2.1" stroke-linecap="round" stroke-linejoin="round"/><path d="M 58 45 L 102 45 C 111 45 116 51 116 60 L 116 100 C 116 110 110 116 100 116 L 60 116 C 50 116 44 110 44 100 L 44 60 C 44 51 49 45 58 45 Z " fill="none" stroke="#163C70" stroke-width="2.1" stroke-linecap="round" stroke-linejoin="round"/><ellipse cx="65" cy="66" rx="4" ry="4" fill="none" stroke="#163C70" stroke-width="2.1" stroke-linecap="round" stroke-linejoin="round"/><ellipse cx="80" cy="62" rx="4" ry="4" fill="none" stroke="#163C70" stroke-width="2.1" stroke-linecap="round" stroke-linejoin="round"/><ellipse cx="95" cy="66" rx="4" ry="4" fill="none" stroke="#163C70" stroke-width="2.1" stroke-linecap="round" stroke-linejoin="round"/><path d="M 57 79 C 61 72 69 72 73 78" fill="none" stroke="#163C70" stroke-width="1.6" stroke-linecap="round" stroke-linejoin="round"/><path d="M 87 78 C 91 72 99 72 103 79" fill="none" stroke="#163C70" stroke-width="1.6" stroke-linecap="round" stroke-linejoin="round"/><path d="M 68 94 L 76 102 L 93 83" fill="none" stroke="#064BFF" stroke-width="2.1" stroke-linecap="round" stroke-linejoin="round"/></svg>