<svg xmlns="http://www.w3.org/2000/svg" viewBox="0 0 160 160" fill="none"><title>בין הנחיה להוראה</title><ellipse cx="123" cy="43" rx="11" ry="8" fill="#673BE8" stroke="none" stroke-width="2.1" stroke-linecap="round" stroke-linejoin="round"/><path d="M 30 57 C 34 28 72 22 98 31 C 129 39 142 63 131 94 C 120 124 89 139 60 126 C 29 112 18 86 30 57 Z " fill="#E7E5FD" stroke="none" stroke-width="2.1" stroke-linecap="round" stroke-linejoin="round"/><ellipse cx="80" cy="80" rx="31" ry="31" fill="none" stroke="#163C70" stroke-width="2.1" stroke-linecap="round" stroke-linejoin="round"/><ellipse cx="80" cy="80" rx="37" ry="37" fill="none" stroke="#9DACE3" stroke-width="1.3" stroke-linecap="round" stroke-linejoin="round"/><path d="M 80 44 L 80 49" fill="none" stroke="#163C70" stroke-width="1.6" stroke-linecap="round" stroke-linejoin="round"/><path d="M 111 80 L 116 80" fill="none" stroke="#163C70" stroke-width="1.6" stroke-linecap="round" stroke-linejoin="round"/><path d="M 80 111 L 80 116" fill="none" stroke="#163C70" stroke-width="1.6" stroke-linecap="round" stroke-linejoin="round"/><path d="M 44 80 L 49 80" fill="none" stroke="#163C70" stroke-width="1.6" stroke-linecap="round" stroke-linejoin="round"/><path d="M 91 65 L 84 85 L 67 95 L 75 75 Z " fill="#FFFFFF" stroke="#064BFF" stroke-width="2.1" stroke-linecap="round" stroke-linejoin="round"/><path d="M 75 75 L 84 85" fill="none" stroke="#064BFF" stroke-width="1.7" stroke-linecap="round" stroke-linejoin="round"/></svg>